<svg xmlns="http://www.w3.org/2000/svg"  viewBox="0 0 100 100" width="50px" height="50px"><circle cx="13" cy="29" r="2" fill="#ee3e54"/><circle cx="77" cy="13" r="1" fill="#f1bc19"/><circle cx="50" cy="50" r="37" fill="#fce0a2"/><circle cx="83" cy="15" r="4" fill="#f1bc19"/><circle cx="87" cy="24" r="2" fill="#ee3e54"/><circle cx="81" cy="76" r="2" fill="#fbcd59"/><circle cx="15" cy="63" r="4" fill="#fbcd59"/><circle cx="25" cy="87" r="2" fill="#ee3e54"/><circle cx="18.5" cy="53.5" r="2.5" fill="#fff"/><circle cx="21" cy="67" r="1" fill="#f1bc19"/><circle cx="80" cy="34" r="1" fill="#fff"/><path fill="#1e65d6" d="M28.005,65.001l-0.004-30c0-3.866,3.134-7.001,7-7.001H65c3.866,0,7,3.134,7,7v30 c0,3.866-3.134,7-7,7H35.005C31.139,72,28.005,68.867,28.005,65.001z"/><path fill="#472b29" d="M65,28.4c3.639,0,6.6,2.961,6.6,6.6v30c0,3.639-2.961,6.6-6.6,6.6H35c-3.639,0-6.6-2.961-6.6-6.6V35 c0-3.639,2.961-6.6,6.6-6.6H65 M65,27H35c-4.418,0-8,3.582-8,8v30c0,4.418,3.582,8,8,8h30c4.418,0,8-3.582,8-8V35 C73,30.582,69.418,27,65,27L65,27z"/><path fill="#472b29" d="M64.5,70h-5c-0.276,0-0.5-0.224-0.5-0.5s0.224-0.5,0.5-0.5h5c2.481,0,4.5-2.019,4.5-4.5v-29 c0-2.481-2.019-4.5-4.5-4.5h-29c-2.481,0-4.5,2.019-4.5,4.5v3c0,0.276-0.224,0.5-0.5,0.5S30,38.776,30,38.5v-3 c0-3.033,2.468-5.5,5.5-5.5h29c3.032,0,5.5,2.467,5.5,5.5v29C70,67.533,67.532,70,64.5,70z"/><path fill="#472b29" d="M56.5,70h-2c-0.276,0-0.5-0.224-0.5-0.5s0.224-0.5,0.5-0.5h2c0.276,0,0.5,0.224,0.5,0.5 S56.776,70,56.5,70z"/><path fill="#472b29" d="M51.5,70h-16c-3.032,0-5.5-2.467-5.5-5.5v-10c0-0.276,0.224-0.5,0.5-0.5s0.5,0.224,0.5,0.5v10 c0,2.481,2.019,4.5,4.5,4.5h16c0.276,0,0.5,0.224,0.5,0.5S51.776,70,51.5,70z"/><path fill="#472b29" d="M30.5,48c-0.276,0-0.5-0.224-0.5-0.5v-6c0-0.276,0.224-0.5,0.5-0.5s0.5,0.224,0.5,0.5v6 C31,47.776,30.776,48,30.5,48z"/><path fill="#fff" d="M40.89,58.772c-0.229,0-0.442-0.052-0.64-0.156c-0.198-0.104-0.297-0.26-0.297-0.468v-16.32 c0-0.207,0.104-0.359,0.312-0.456c0.207-0.096,0.446-0.144,0.717-0.144c0.25,0,0.484,0.048,0.702,0.144 c0.219,0.097,0.328,0.249,0.328,0.456v15.48h8.892c0.25,0,0.426,0.076,0.53,0.228c0.104,0.152,0.156,0.316,0.156,0.492 c0,0.192-0.052,0.364-0.156,0.517c-0.104,0.151-0.28,0.228-0.53,0.228H40.89z"/><path fill="#472b29" d="M50.905,59.022H40.89c-0.27,0-0.524-0.062-0.757-0.186c-0.281-0.146-0.43-0.385-0.43-0.688v-16.32 c0-0.304,0.163-0.547,0.458-0.683c0.461-0.215,1.108-0.229,1.625-0.002c0.308,0.136,0.478,0.379,0.478,0.685v15.23h8.642 c0.417,0,0.63,0.183,0.736,0.336c0.133,0.193,0.201,0.407,0.201,0.634c0,0.243-0.067,0.465-0.2,0.658 C51.535,58.839,51.322,59.022,50.905,59.022z M40.983,41.478c-0.233,0-0.439,0.041-0.612,0.12 c-0.139,0.064-0.167,0.139-0.167,0.229v16.32c0,0.084,0.02,0.172,0.163,0.246c0.163,0.086,0.334,0.128,0.524,0.128h10.015 c0.242,0,0.304-0.09,0.325-0.119c0.075-0.11,0.112-0.232,0.112-0.375c0-0.126-0.037-0.24-0.112-0.351 c-0.02-0.029-0.082-0.119-0.324-0.119h-8.892c-0.138,0-0.25-0.112-0.25-0.25v-15.48c0-0.077-0.021-0.158-0.179-0.228 C41.4,41.519,41.197,41.478,40.983,41.478z"/><path fill="#fff" d="M54.967,58.772c-0.271,0-0.504-0.063-0.702-0.192c-0.197-0.128-0.296-0.271-0.296-0.432V48.02 c0-0.192,0.099-0.34,0.296-0.444c0.198-0.104,0.432-0.155,0.702-0.155s0.499,0.052,0.687,0.155 c0.188,0.104,0.281,0.252,0.281,0.444v1.176c0.229-0.336,0.54-0.647,0.936-0.936c0.395-0.288,0.863-0.524,1.404-0.708 c0.54-0.184,1.154-0.276,1.841-0.276h1.092c0.229,0,0.421,0.072,0.577,0.216c0.156,0.145,0.234,0.312,0.234,0.504 c0,0.208-0.078,0.381-0.234,0.517s-0.349,0.204-0.577,0.204h-1.092c-0.687,0-1.348,0.144-1.981,0.432 c-0.635,0.288-1.149,0.688-1.544,1.2c-0.396,0.512-0.594,1.136-0.594,1.872v5.928c0,0.16-0.099,0.304-0.296,0.432 C55.503,58.708,55.259,58.772,54.967,58.772z"/><path fill="#472b29" d="M54.967,59.022c-0.319,0-0.601-0.078-0.838-0.232c-0.272-0.177-0.41-0.393-0.41-0.642V48.02 c0-0.2,0.074-0.478,0.429-0.665c0.472-0.247,1.181-0.245,1.626,0.002c0.339,0.189,0.411,0.465,0.411,0.663v0.492 c0.16-0.158,0.34-0.31,0.539-0.454c0.413-0.302,0.908-0.552,1.471-0.742c0.565-0.192,1.212-0.29,1.921-0.29h1.092 c0.292,0,0.543,0.095,0.746,0.281c0.209,0.194,0.315,0.426,0.315,0.688c0,0.279-0.111,0.523-0.32,0.705 c-0.203,0.177-0.452,0.266-0.741,0.266h-1.092c-0.649,0-1.281,0.138-1.878,0.409c-0.594,0.27-1.082,0.648-1.45,1.125 c-0.359,0.466-0.542,1.044-0.542,1.72v5.928c0,0.249-0.138,0.465-0.41,0.642C55.6,58.943,55.307,59.022,54.967,59.022z M54.967,47.67c-0.228,0-0.425,0.043-0.586,0.127c-0.142,0.075-0.162,0.151-0.162,0.223v10.128c0,0.086,0.099,0.168,0.182,0.222 c0.329,0.214,0.862,0.195,1.163,0c0.083-0.054,0.182-0.136,0.182-0.222V52.22c0-0.789,0.217-1.471,0.646-2.025 c0.418-0.542,0.969-0.971,1.638-1.274c0.663-0.302,1.364-0.454,2.085-0.454h1.092c0.167,0,0.303-0.047,0.413-0.143 c0.101-0.088,0.148-0.192,0.148-0.328c0-0.121-0.049-0.223-0.154-0.32c-0.109-0.101-0.243-0.149-0.407-0.149h-1.092 c-0.655,0-1.247,0.089-1.76,0.263c-0.515,0.175-0.965,0.401-1.337,0.674c-0.371,0.27-0.665,0.563-0.876,0.874 c-0.062,0.09-0.175,0.128-0.28,0.099c-0.104-0.032-0.176-0.13-0.176-0.239V48.02c0-0.073-0.019-0.151-0.153-0.226 C55.384,47.712,55.194,47.67,54.967,47.67z"/></svg>