<svg xmlns="http://www.w3.org/2000/svg" xmlns:xlink="http://www.w3.org/1999/xlink" viewBox="0,0,256,256" width="200px" height="200px" fill-rule="nonzero"><g fill="#ffdb70" fill-rule="nonzero" stroke="none" stroke-width="1" stroke-linecap="butt" stroke-linejoin="miter" stroke-miterlimit="10" stroke-dasharray="" stroke-dashoffset="0" font-family="none" font-weight="none" font-size="none" text-anchor="none" style="mix-blend-mode: normal"><g transform="scale(5.12,5.12)"><path d="M25.49414,4.99805c-1.309,0 -2.60414,0.34981 -3.74414,1.00781c-1.735,1.002 -2.97614,2.61773 -3.49414,4.55273c-0.519,1.935 -0.25381,3.95569 0.74219,5.67969l14.00781,25.01172c1.336,2.313 3.826,3.75195 6.5,3.75195c1.309,0 2.60414,-0.34981 3.74414,-1.00781c1.735,-1.002 2.97614,-2.61773 3.49414,-4.55273c0.519,-1.935 0.25381,-3.95569 -0.74219,-5.67969l-14.00781,-25.01172c-1.336,-2.313 -3.826,-3.75195 -6.5,-3.75195zM16.07031,13.64063l-9,15c1.07,-0.41 2.21969,-0.64062 3.42969,-0.64062c4.85,0 8.86969,3.65938 9.42969,8.35938l4.16016,-6.93945l-6.82031,-12.17969c-0.65,-1.12 -1.04922,-2.33961 -1.19922,-3.59961zM10.5,30c-4.14214,0 -7.5,3.35786 -7.5,7.5c0,4.14214 3.35786,7.5 7.5,7.5c4.14214,0 7.5,-3.35786 7.5,-7.5c0,-4.14214 -3.35786,-7.5 -7.5,-7.5z"></path></g></g></svg>