<svg xmlns="http://www.w3.org/2000/svg"  viewBox="0 0 100 100" width="50px" height="50px"><path fill="#ee3e54" d="M13,27c-1.105,0-2,0.895-2,2s0.895,2,2,2s2-0.895,2-2S14.105,27,13,27z"/><path fill="#f1bc19" d="M77,12c-0.552,0-1,0.448-1,1s0.448,1,1,1s1-0.448,1-1S77.552,12,77,12z"/><path fill="#fce0a2" d="M50,13c-20.435,0-37,16.565-37,37s16.565,37,37,37s37-16.565,37-37S70.435,13,50,13z"/><path fill="#f1bc19" d="M83,11c-2.209,0-4,1.791-4,4s1.791,4,4,4s4-1.791,4-4S85.209,11,83,11z"/><path fill="#ee3e54" d="M87,22c-1.105,0-2,0.895-2,2s0.895,2,2,2s2-0.895,2-2S88.105,22,87,22z"/><path fill="#fbcd59" d="M81,74c-1.105,0-2,0.895-2,2s0.895,2,2,2s2-0.895,2-2S82.105,74,81,74z M15,59c-2.209,0-4,1.791-4,4	s1.791,4,4,4s4-1.791,4-4S17.209,59,15,59z"/><path fill="#ee3e54" d="M25,85c-1.105,0-2,0.895-2,2s0.895,2,2,2s2-0.895,2-2S26.105,85,25,85z"/><path fill="#fff" d="M18.5,51c-1.381,0-2.5,1.119-2.5,2.5s1.119,2.5,2.5,2.5s2.5-1.119,2.5-2.5S19.881,51,18.5,51z"/><path fill="#f1bc19" d="M21,66c-0.552,0-1,0.448-1,1s0.448,1,1,1s1-0.448,1-1S21.552,66,21,66z"/><path fill="#fff" d="M80,33c-0.552,0-1,0.448-1,1s0.448,1,1,1s1-0.448,1-1S80.552,33,80,33z"/><circle cx="50" cy="50" r="23.996" fill="#18c9c4"/><path fill="#472b29" d="M58.166,31.426c-0.049,0-0.099-0.01-0.147-0.03l-0.374-0.156c-0.57-0.233-1.164-0.444-1.763-0.625 c-0.198-0.06-0.311-0.27-0.25-0.468c0.061-0.198,0.271-0.309,0.467-0.25c0.622,0.188,1.237,0.407,1.829,0.649l0.386,0.161 c0.19,0.081,0.278,0.301,0.197,0.492C58.45,31.34,58.312,31.426,58.166,31.426z"/><path fill="#472b29" d="M49.998,70.994c-11.579,0-20.999-9.42-20.999-20.999s9.42-20.999,20.999-20.999 c1.13,0,2.265,0.091,3.372,0.27c0.205,0.033,0.344,0.226,0.311,0.43c-0.032,0.204-0.225,0.349-0.43,0.31 c-1.068-0.173-2.163-0.26-3.253-0.26c-11.166,0-20.249,9.083-20.249,20.249c0,11.165,9.083,20.249,20.249,20.249 c11.165,0,20.249-9.084,20.249-20.249c0-6.231-2.807-12.024-7.701-15.894c-0.163-0.128-0.19-0.364-0.062-0.526 c0.129-0.163,0.366-0.19,0.526-0.062c5.075,4.012,7.986,10.02,7.986,16.482C70.997,61.574,61.577,70.994,49.998,70.994z"/><path fill="#fff" d="M55.404,52.321c-0.848,0.93-2.038,1.4-2.596,1.4c-0.645,0-0.997-0.395-1.069-0.989 c-0.024-0.227-0.016-0.458,0.024-0.683c0.213-1.331,0.703-2.157,0.672-2.409c-0.009-0.072-0.049-0.108-0.103-0.108 c-0.412,0-1.859,1.492-2.079,2.482l-0.171,0.791c-0.112,0.558-0.658,0.917-1.034,0.917c-0.179,0-0.316-0.09-0.34-0.287 c-0.007-0.09,0-0.181,0.021-0.27l0.081-0.417c-0.78,0.583-1.621,0.977-2.015,0.977c-0.538,0-0.84-0.287-0.947-0.72 c-0.355,0.468-0.826,0.72-1.327,0.72c-0.64,0-1.256-0.423-1.552-1.05c-0.422,0.474-0.922,0.937-1.519,1.319 C40.569,54.551,39.586,55,38.423,55c-1.074,0-1.986-0.575-2.491-1.043c-0.748-0.701-1.144-1.745-1.26-2.698 c-0.367-3.003,1.461-6.941,4.293-8.666c0.65-0.396,1.378-0.593,2.04-0.593c1.361,0,2.376,0.974,2.519,2.137 c0.128,1.048-0.291,1.954-1.453,2.54c-0.593,0.3-0.887,0.286-0.98,0.143c-0.062-0.096-0.027-0.257,0.093-0.357 c1.093-0.913,1.113-1.662,0.985-2.719c-0.083-0.679-0.53-1.115-1.032-1.115c-2.148,0-5.229,4.819-4.801,8.325 c0.167,1.367,1.005,2.949,2.723,2.949c0.573,0,1.18-0.162,1.72-0.432c0.943-0.482,1.476-0.863,2.011-1.487 c-0.131-1.621,1.26-3.656,3.329-3.656c0.895,0,1.637,0.359,1.725,1.079c0.11,0.899-0.656,1.079-0.942,1.079 c-0.251,0-0.653-0.072-0.682-0.306c-0.031-0.252,0.542-0.108,0.471-0.683c-0.044-0.359-0.417-0.485-0.775-0.485 c-1.289,0-2,1.798-1.864,2.913c0.062,0.504,0.32,1.007,0.786,1.007c0.376,0,0.918-0.54,1.126-1.331 c0.131-0.54,0.642-0.899,1.019-0.899c0.197,0,0.333,0.09,0.358,0.287c0.008,0.072,0.002,0.162-0.021,0.27 c-0.043,0.233-0.222,1.011-0.214,1.173c0.006,0.14,0.087,0.333,0.331,0.333c0.194,0,0.903-0.383,1.561-0.974 c0.207-1.068,0.462-2.388,0.482-2.492c0.081-0.433,0.235-0.878,1.113-0.878c0.179,0,0.316,0.09,0.342,0.306 c0.008,0.071,0.002,0.162-0.021,0.27l-0.245,1.11c0.77-1.025,1.966-1.78,2.683-1.78c0.305,0,0.54,0.161,0.579,0.485 c0.022,0.18-0.031,0.486-0.149,0.827c-0.255,0.701-0.541,1.754-0.731,2.661c-0.04,0.192,0.027,0.484,0.379,0.484 c0.281,0,1.185-0.345,1.914-1.308c-0.005-0.137-0.007-0.275-0.007-0.414c0-0.755,0.053-1.366,0.196-1.815 c0.143-0.468,0.734-0.916,1.128-0.916c0.198,0,0.341,0.108,0.341,0.323c0,0.072-0.018,0.163-0.054,0.252 c-0.268,0.791-0.411,1.529-0.411,2.266c0,0.413,0.09,1.079,0.179,1.42c0.018,0.072,0.035,0.144,0.107,0.144 c0.125,0,0.967-0.827,1.576-1.834c-0.538-0.342-0.842-0.971-0.842-1.745c0-1.294,0.77-1.96,1.522-1.96 c0.591,0,1.128,0.432,1.128,1.294c0,0.54-0.215,1.151-0.519,1.745c0,0,0.125,0.018,0.179,0.018c0.465,0,0.824-0.216,1.021-0.45 c0.09-0.101,0.172-0.181,0.252-0.228c0.6-0.724,1.478-1.247,2.509-1.247c0.878,0,1.635,0.342,1.723,1.061 c0.112,0.917-0.671,1.097-0.94,1.097c-0.268,0-0.671-0.072-0.699-0.306c-0.029-0.233,0.56-0.108,0.491-0.665 c-0.044-0.36-0.419-0.504-0.777-0.504c-1.2,0-2.025,1.6-1.866,2.895c0.064,0.521,0.304,1.025,0.77,1.025 c0.376,0,0.937-0.54,1.145-1.331c0.133-0.521,0.642-0.899,1.018-0.899c0.179,0,0.333,0.09,0.359,0.306 c0.013,0.108-0.03,0.342-0.231,1.186c-0.082,0.359-0.098,0.666-0.068,0.917c0.064,0.521,0.303,0.863,0.524,1.061 c0.081,0.071,0.127,0.161,0.134,0.216c0.017,0.144-0.092,0.27-0.272,0.27c-0.054,0-0.125,0-0.184-0.036 c-0.922-0.378-1.305-1.007-1.413-1.6c-0.356,0.449-0.827,0.701-1.31,0.701c-0.824,0-1.628-0.72-1.742-1.654 c-0.047-0.384-0.001-0.797,0.125-1.202c-0.334,0.207-0.694,0.321-1.017,0.321c-0.108,0-0.196,0-0.304-0.018 c-0.805,1.168-1.647,1.977-2.292,2.337c-0.268,0.144-0.519,0.216-0.698,0.216c-0.144,0-0.305-0.036-0.376-0.162 C55.58,53.284,55.469,52.841,55.404,52.321L55.404,52.321z M58.322,48.491c0,0.504,0.25,1.025,0.573,1.367 c0.126-0.342,0.198-0.683,0.198-1.025c0-0.647-0.251-0.935-0.448-0.935C58.411,47.897,58.322,48.221,58.322,48.491z"/><g><path fill="#472b29" d="M50,74.996c-13.785,0-25-11.214-25-25s11.215-25,25-25s25,11.214,25,25S63.785,74.996,50,74.996z M50,26.399c-13.011,0-23.597,10.585-23.597,23.597S36.989,73.594,50,73.594s23.597-10.585,23.597-23.597S63.011,26.399,50,26.399z"/></g></svg>