<svg xmlns="http://www.w3.org/2000/svg" xmlns:xlink="http://www.w3.org/1999/xlink" viewBox="0,0,256,256" width="100px" height="100px" fill-rule="nonzero"><g fill="#ffdb70" fill-rule="nonzero" stroke="none" stroke-width="1" stroke-linecap="butt" stroke-linejoin="miter" stroke-miterlimit="10" stroke-dasharray="" stroke-dashoffset="0" font-family="none" font-weight="none" font-size="none" text-anchor="none" style="mix-blend-mode: normal"><g transform="scale(8,8)"><path d="M6.11914,12c-0.36,0 -0.62875,0.21906 -0.71875,0.53906l-1.74023,6.46094l1.23047,-0.00977c0.34,0 0.61898,-0.2193 0.70898,-0.5293l1.29102,-4.75h0.99023c0.42,0 0.80992,0.27828 0.91992,0.73828c0.12,0.54 -0.29992,1.12109 -0.91992,1.12109h-0.51172c-0.35,0 -0.62875,0.2293 -0.71875,0.5293l-0.32031,1.17969h1.59961c1.86,0 2.91984,-1.79023 2.58984,-3.24023c-0.28,-1.23 -1.34883,-2.03906 -2.54883,-2.03906zM30.7207,12c-0.25,0 -0.46148,0.16062 -0.52148,0.39063l-1.7793,6.60938c1.03,0 1.99023,-0.6907 2.24023,-1.7207l1.33008,-4.86914c0.06,-0.21 -0.10008,-0.41016 -0.33008,-0.41016zM11.35156,14l-0.16211,0.62305c-0.114,0.454 0.20887,0.86914 0.67188,0.86914h2.71289c0.189,0 0.11252,0.19909 0.10351,0.24609l-0.40625,1.49414c-0.019,0.066 -0.04667,0.24609 -0.26367,0.24609h-1.64648c-0.255,0 -0.255,-0.36914 0,-0.36914h1.02148c0.321,0 0.57688,-0.21677 0.67188,-0.50977l0.16016,-0.61523h-2.28711c-1.852,0 -2.05934,2.99609 -0.02734,2.99609l2.71094,0.00977c0.529,0 0.97542,-0.3408 1.10742,-0.8418l0.66211,-2.42773c0.227,-0.898 -0.45475,-1.7207 -1.34375,-1.7207zM2.50391,14.00977c-1.087,0 -2.08187,0.66073 -2.42187,1.92773c-0.416,1.588 0.79505,3.0625 2.37305,3.0625h0.58594l0.33984,-1.22852c0.057,-0.208 -0.10473,-0.38867 -0.30273,-0.38867h-0.53906c-1.163,0 -1.172,-1.75781 0,-1.75781h0.88086c0.331,0 0.58469,-0.20777 0.67969,-0.50977l0.29297,-1.10547zM19.78125,14.00977v0.00781h-2.27734l-1.23828,4.59375c-0.057,0.208 0.10178,0.38867 0.30078,0.38867h0.88867c0.227,0 0.43519,-0.14119 0.49219,-0.36719l0.8125,-2.99609h0.93555c0.595,0 1.02233,0.5477 0.86133,1.0957l-0.50195,1.87109c-0.057,0.208 0.08573,0.39648 0.30273,0.39648h0.90625c0.217,0 0.42542,-0.14214 0.48242,-0.36914l0.41602,-1.55078c0.425,-1.559 -0.74686,-3.07031 -2.38086,-3.07031zM24.93945,14.01172c-0.841,0 -1.59722,0.56667 -1.82422,1.38867l-0.50977,1.87109c-0.236,0.832 0.3968,1.73047 1.3418,1.73047h3.14648c0.321,0 0.58687,-0.21872 0.67188,-0.51172l0.27344,-0.98242h-3.46875c-0.17,0 -0.28333,-0.1615 -0.23633,-0.3125l0.37891,-1.4082c0.038,-0.18 0.16919,-0.2832 0.36719,-0.2832h1.55078c0.123,0 0.21745,0.11409 0.18945,0.24609l-0.03906,0.12305c-0.029,0.094 -0.08469,0.13281 -0.17969,0.13281h-1.02148c-0.331,0 -0.59392,0.21677 -0.66992,0.50977l-0.16992,0.61328h2.52344c0.501,0 0.9637,-0.31203 1.0957,-0.83203l0.15234,-0.55859c0.236,-0.898 -0.43503,-1.72856 -1.33203,-1.72656z"></path></g></g></svg>