<svg xmlns="http://www.w3.org/2000/svg" xmlns:xlink="http://www.w3.org/1999/xlink" viewBox="0,0,256,256" width="50px" height="50px"><g fill="none" fill-rule="nonzero" stroke="none" stroke-width="1" stroke-linecap="butt" stroke-linejoin="miter" stroke-miterlimit="10" stroke-dasharray="" stroke-dashoffset="0" font-family="none" font-weight="none" font-size="none" text-anchor="none" style="mix-blend-mode: normal"><g transform="scale(2.56,2.56)"><path d="M13,27c-1.10457,0 -2,0.89543 -2,2c0,1.10457 0.89543,2 2,2c1.10457,0 2,-0.89543 2,-2c0,-1.10457 -0.89543,-2 -2,-2z" fill="#ee3e54"></path><path d="M77,12c-0.55228,0 -1,0.44772 -1,1c0,0.55228 0.44772,1 1,1c0.55228,0 1,-0.44772 1,-1c0,-0.55228 -0.44772,-1 -1,-1z" fill="#f1bc19"></path><path d="M50,13c-20.43454,0 -37,16.56546 -37,37c0,20.43454 16.56546,37 37,37c20.43454,0 37,-16.56546 37,-37c0,-20.43454 -16.56546,-37 -37,-37z" fill="#fce0a2"></path><path d="M83,11c-2.20914,0 -4,1.79086 -4,4c0,2.20914 1.79086,4 4,4c2.20914,0 4,-1.79086 4,-4c0,-2.20914 -1.79086,-4 -4,-4z" fill="#f1bc19"></path><path d="M87,22c-1.10457,0 -2,0.89543 -2,2c0,1.10457 0.89543,2 2,2c1.10457,0 2,-0.89543 2,-2c0,-1.10457 -0.89543,-2 -2,-2z" fill="#ee3e54"></path><path d="M81,74c-1.10457,0 -2,0.89543 -2,2c0,1.10457 0.89543,2 2,2c1.10457,0 2,-0.89543 2,-2c0,-1.10457 -0.89543,-2 -2,-2zM15,59c-2.20914,0 -4,1.79086 -4,4c0,2.20914 1.79086,4 4,4c2.20914,0 4,-1.79086 4,-4c0,-2.20914 -1.79086,-4 -4,-4z" fill="#fbcd59"></path><path d="M25,85c-1.10457,0 -2,0.89543 -2,2c0,1.10457 0.89543,2 2,2c1.10457,0 2,-0.89543 2,-2c0,-1.10457 -0.89543,-2 -2,-2z" fill="#ee3e54"></path><path d="M18.5,51c-1.38071,0 -2.5,1.11929 -2.5,2.5c0,1.38071 1.11929,2.5 2.5,2.5c1.38071,0 2.5,-1.11929 2.5,-2.5c0,-1.38071 -1.11929,-2.5 -2.5,-2.5z" fill="#ffffff"></path><path d="M21,66c-0.55228,0 -1,0.44772 -1,1c0,0.55228 0.44772,1 1,1c0.55228,0 1,-0.44772 1,-1c0,-0.55228 -0.44772,-1 -1,-1z" fill="#f1bc19"></path><path d="M80,33c-0.55228,0 -1,0.44772 -1,1c0,0.55228 0.44772,1 1,1c0.55228,0 1,-0.44772 1,-1c0,-0.55228 -0.44772,-1 -1,-1z" fill="#ffffff"></path><g><path d="M35,72.3c-4.025,0 -7.3,-3.274 -7.3,-7.3v-30c0,-4.025 3.274,-7.3 7.3,-7.3h30c4.025,0 7.3,3.274 7.3,7.3v30c0,4.025 -3.274,7.3 -7.3,7.3z" fill="#28b3ea"></path><path d="M65,28.4c3.639,0 6.6,2.961 6.6,6.6v30c0,3.639 -2.961,6.6 -6.6,6.6h-30c-3.639,0 -6.6,-2.961 -6.6,-6.6v-30c0,-3.639 2.961,-6.6 6.6,-6.6h30M65,27h-30c-4.4,0 -8,3.6 -8,8v30c0,4.4 3.6,8 8,8h30c4.4,0 8,-3.6 8,-8v-30c0,-4.4 -3.6,-8 -8,-8z" fill="#472b29"></path></g><g fill="#472b29"><path d="M68.5,47.375c-0.276,0 -0.5,-0.224 -0.5,-0.5v-3.875c0,-0.276 0.224,-0.5 0.5,-0.5c0.276,0 0.5,0.224 0.5,0.5v3.875c0,0.276 -0.224,0.5 -0.5,0.5z"></path></g><g fill="#472b29"><path d="M68.5,40.5c-0.276,0 -0.5,-0.224 -0.5,-0.5v-2c0,-0.276 0.224,-0.5 0.5,-0.5c0.276,0 0.5,0.224 0.5,0.5v2c0,0.276 -0.224,0.5 -0.5,0.5z"></path></g><g fill="#472b29"><path d="M64,69h-28c-2.757,0 -5,-2.243 -5,-5v-28c0,-2.757 2.243,-5 5,-5h25.375c0.276,0 0.5,0.224 0.5,0.5c0,0.276 -0.224,0.5 -0.5,0.5h-25.375c-2.206,0 -4,1.794 -4,4v28c0,2.206 1.794,4 4,4h28c2.206,0 4,-1.794 4,-4v-14.375c0,-0.276 0.224,-0.5 0.5,-0.5c0.276,0 0.5,0.224 0.5,0.5v14.375c0,2.757 -2.243,5 -5,5z"></path></g><g><path d="M50.949,46.192c0,0.852 -0.188,1.62 -0.562,2.304c-0.375,0.684 -0.897,1.265 -1.566,1.743c-0.669,0.48 -1.459,0.848 -2.369,1.105c-0.91,0.258 -1.892,0.386 -2.945,0.386h-1.232v7.003h-2.463v-17.733h4.31c0.964,0 1.861,0.106 2.691,0.319c0.83,0.213 1.553,0.538 2.168,0.972c0.616,0.436 1.098,0.977 1.445,1.624c0.35,0.649 0.523,1.407 0.523,2.277zM48.486,46.165c0,-0.586 -0.117,-1.079 -0.348,-1.478c-0.232,-0.399 -0.549,-0.728 -0.951,-0.986c-0.402,-0.258 -0.874,-0.443 -1.418,-0.559c-0.545,-0.115 -1.12,-0.173 -1.727,-0.173h-1.767v6.79h1.313c0.713,0 1.37,-0.081 1.968,-0.239c0.598,-0.16 1.115,-0.395 1.553,-0.705c0.437,-0.31 0.776,-0.688 1.018,-1.132c0.238,-0.444 0.359,-0.949 0.359,-1.518z" fill="#fdfcee"></path><path d="M42.525,58.982h-2.963v-18.232h4.56c0.979,0 1.905,0.109 2.753,0.326c0.854,0.219 1.61,0.559 2.25,1.01c0.646,0.457 1.157,1.033 1.521,1.711c0.366,0.682 0.552,1.487 0.552,2.395c0,0.891 -0.199,1.706 -0.593,2.424c-0.39,0.712 -0.941,1.327 -1.64,1.827c-0.689,0.494 -1.512,0.878 -2.447,1.142c-0.927,0.264 -1.941,0.396 -3.012,0.396h-0.982v7.001zM40.063,58.482h1.963v-7.002h1.482c1.025,0 1.993,-0.127 2.876,-0.377c0.879,-0.248 1.65,-0.607 2.292,-1.067c0.637,-0.456 1.139,-1.016 1.493,-1.661c0.353,-0.644 0.531,-1.378 0.531,-2.184c0,-0.823 -0.166,-1.55 -0.492,-2.158c-0.327,-0.609 -0.788,-1.127 -1.37,-1.539c-0.59,-0.416 -1.292,-0.729 -2.086,-0.934c-0.807,-0.206 -1.692,-0.311 -2.629,-0.311h-4.06zM43.588,50.009h-1.563v-7.29h2.017c0.621,0 1.219,0.06 1.779,0.179c0.573,0.122 1.079,0.322 1.501,0.594c0.435,0.278 0.782,0.639 1.032,1.069c0.253,0.438 0.381,0.978 0.381,1.604c0,0.605 -0.131,1.155 -0.389,1.636c-0.261,0.479 -0.628,0.888 -1.094,1.218c-0.459,0.325 -1.009,0.575 -1.633,0.742c-0.616,0.165 -1.3,0.248 -2.031,0.248zM42.525,49.509h1.063c0.688,0 1.328,-0.078 1.903,-0.23c0.567,-0.152 1.063,-0.377 1.473,-0.668c0.403,-0.286 0.72,-0.638 0.943,-1.048c0.218,-0.405 0.329,-0.876 0.329,-1.397c0,-0.538 -0.105,-0.993 -0.314,-1.354c-0.21,-0.361 -0.502,-0.664 -0.87,-0.9c-0.372,-0.238 -0.821,-0.415 -1.335,-0.525c-0.525,-0.11 -1.088,-0.167 -1.675,-0.167h-1.517z" fill="#472b29"></path><g><path d="M60.781,55.086c0,0.603 -0.13,1.144 -0.389,1.624c-0.259,0.48 -0.616,0.889 -1.071,1.225c-0.455,0.337 -0.995,0.599 -1.62,0.786c-0.625,0.187 -1.302,0.279 -2.034,0.279c-0.322,0 -0.661,-0.018 -1.018,-0.054c-0.357,-0.036 -0.713,-0.089 -1.071,-0.16c-0.357,-0.071 -0.701,-0.156 -1.031,-0.253c-0.33,-0.098 -0.612,-0.2 -0.843,-0.306l0.402,-1.892c0.464,0.195 0.994,0.373 1.593,0.534c0.598,0.16 1.263,0.239 1.995,0.239c0.767,0 1.414,-0.137 1.941,-0.412c0.526,-0.275 0.79,-0.714 0.79,-1.318c0,-0.283 -0.071,-0.537 -0.214,-0.759c-0.144,-0.222 -0.33,-0.418 -0.562,-0.586c-0.232,-0.169 -0.505,-0.324 -0.817,-0.467c-0.313,-0.142 -0.638,-0.283 -0.977,-0.425c-0.464,-0.178 -0.928,-0.377 -1.392,-0.599c-0.464,-0.222 -0.888,-0.488 -1.271,-0.799c-0.384,-0.31 -0.696,-0.67 -0.937,-1.079c-0.241,-0.408 -0.362,-0.895 -0.362,-1.464c0,-0.622 0.13,-1.154 0.389,-1.597c0.259,-0.443 0.598,-0.807 1.018,-1.092c0.419,-0.283 0.906,-0.493 1.459,-0.626c0.553,-0.133 1.125,-0.2 1.714,-0.2c0.678,0 1.338,0.075 1.981,0.227c0.642,0.151 1.223,0.36 1.741,0.626l-0.402,1.811c-0.518,-0.248 -1.058,-0.439 -1.62,-0.573c-0.562,-0.133 -1.129,-0.2 -1.7,-0.2c-0.625,0 -1.152,0.106 -1.579,0.319c-0.429,0.213 -0.642,0.604 -0.642,1.171c0,0.266 0.076,0.493 0.228,0.678c0.151,0.187 0.348,0.355 0.589,0.507c0.241,0.151 0.504,0.289 0.79,0.412c0.285,0.125 0.553,0.249 0.803,0.373c0.232,0.107 0.58,0.258 1.044,0.453c0.464,0.195 0.924,0.449 1.378,0.759c0.454,0.31 0.853,0.697 1.192,1.158c0.335,0.465 0.505,1.024 0.505,1.68z" fill="#fdfcee"></path><path d="M55.667,59.25c-0.326,0 -0.667,-0.018 -1.042,-0.055c-0.37,-0.038 -0.738,-0.093 -1.095,-0.164c-0.355,-0.069 -0.709,-0.157 -1.053,-0.258c-0.338,-0.101 -0.633,-0.207 -0.876,-0.318l-0.182,-0.083l0.506,-2.384l0.279,0.117c0.447,0.188 0.973,0.364 1.561,0.522c0.572,0.153 1.221,0.23 1.93,0.23c0.722,0 1.336,-0.129 1.825,-0.384c0.441,-0.231 0.656,-0.59 0.656,-1.097c0,-0.234 -0.059,-0.444 -0.174,-0.624c-0.126,-0.196 -0.294,-0.37 -0.499,-0.519c-0.215,-0.156 -0.475,-0.305 -0.775,-0.442c-0.31,-0.141 -0.632,-0.281 -0.969,-0.422c-0.466,-0.179 -0.941,-0.382 -1.404,-0.604c-0.479,-0.229 -0.923,-0.509 -1.321,-0.83c-0.406,-0.328 -0.74,-0.714 -0.995,-1.146c-0.263,-0.446 -0.396,-0.981 -0.396,-1.592c0,-0.662 0.142,-1.242 0.423,-1.723c0.278,-0.476 0.646,-0.87 1.094,-1.173c0.445,-0.301 0.963,-0.523 1.541,-0.662c1.229,-0.296 2.583,-0.264 3.81,0.026c0.659,0.155 1.264,0.373 1.798,0.646l0.171,0.088l-0.512,2.308l-0.284,-0.136c-0.501,-0.24 -1.03,-0.427 -1.57,-0.556c-1.111,-0.263 -2.351,-0.278 -3.11,0.1c-0.339,0.168 -0.503,0.478 -0.503,0.947c0,0.21 0.056,0.38 0.171,0.521c0.133,0.165 0.311,0.316 0.529,0.453c0.226,0.143 0.48,0.275 0.757,0.395c0.289,0.126 0.56,0.253 0.814,0.377c0.225,0.104 0.57,0.254 1.03,0.447c0.475,0.2 0.954,0.463 1.422,0.782c0.477,0.326 0.898,0.736 1.253,1.218c0.368,0.511 0.554,1.125 0.554,1.828c0,0.643 -0.141,1.229 -0.418,1.743c-0.275,0.51 -0.66,0.949 -1.143,1.307c-0.476,0.353 -1.047,0.631 -1.697,0.824c-0.644,0.195 -1.352,0.293 -2.106,0.293zM51.992,58.079c0.183,0.073 0.393,0.146 0.626,0.215c0.329,0.097 0.668,0.18 1.008,0.247c0.342,0.068 0.695,0.121 1.048,0.156c1.17,0.115 2.099,0.038 2.956,-0.216c0.594,-0.178 1.113,-0.429 1.542,-0.748c0.423,-0.313 0.76,-0.697 1,-1.143c0.238,-0.44 0.358,-0.946 0.358,-1.505c0,-0.596 -0.154,-1.111 -0.458,-1.533c-0.32,-0.436 -0.7,-0.806 -1.13,-1.1c-0.441,-0.3 -0.89,-0.548 -1.334,-0.734c-0.467,-0.197 -0.817,-0.349 -1.051,-0.457c-0.252,-0.124 -0.517,-0.247 -0.798,-0.369c-0.299,-0.13 -0.576,-0.274 -0.824,-0.43c-0.264,-0.166 -0.483,-0.354 -0.65,-0.562c-0.188,-0.229 -0.283,-0.51 -0.283,-0.836c0,-0.834 0.425,-1.219 0.781,-1.395c0.869,-0.434 2.223,-0.432 3.448,-0.139c0.473,0.112 0.938,0.268 1.385,0.461l0.292,-1.318c-0.455,-0.216 -0.963,-0.391 -1.512,-0.521c-1.151,-0.27 -2.424,-0.302 -3.579,-0.026c-0.519,0.124 -0.982,0.323 -1.377,0.59c-0.386,0.261 -0.703,0.602 -0.942,1.011c-0.235,0.403 -0.354,0.897 -0.354,1.471c0,0.52 0.11,0.97 0.327,1.338c0.225,0.382 0.52,0.722 0.879,1.012c0.367,0.297 0.779,0.555 1.222,0.768c0.451,0.216 0.913,0.414 1.374,0.591c0.349,0.146 0.676,0.288 0.991,0.431c0.331,0.152 0.621,0.318 0.861,0.493c0.254,0.184 0.465,0.403 0.625,0.652c0.168,0.262 0.254,0.563 0.254,0.895c0,0.7 -0.311,1.219 -0.924,1.54c-0.562,0.292 -1.253,0.44 -2.057,0.44c-0.752,0 -1.445,-0.083 -2.059,-0.248c-0.493,-0.132 -0.944,-0.277 -1.346,-0.432z" fill="#472b29"></path></g></g></g></g></svg>