<svg xmlns="http://www.w3.org/2000/svg" xmlns:xlink="http://www.w3.org/1999/xlink" viewBox="0,0,256,256" width="480px" height="480px" fill-rule="nonzero"><g fill="none" fill-rule="nonzero" stroke="none" stroke-width="1" stroke-linecap="butt" stroke-linejoin="miter" stroke-miterlimit="10" stroke-dasharray="" stroke-dashoffset="0" font-family="none" font-weight="none" font-size="none" text-anchor="none" style="mix-blend-mode: normal"><g transform="scale(5.33333,5.33333)"><circle cx="24" cy="25" r="20" fill="#ffdb70"></circle><path d="M24.005,15c-3.262,-0.002 -6.155,1.574 -7.983,3.996h-0.019v0.026c-1.251,1.669 -2.002,3.733 -2.003,5.974c-0.003,5.513 4.481,10.001 9.995,10.004c5.514,0.003 10.002,-4.482 10.005,-9.995c0.003,-5.513 -4.481,-10.002 -9.995,-10.005zM16,24.996c0,-0.616 0.077,-1.214 0.21,-1.791l1.79,1.792l2.999,3.001v1c-0.001,1.105 0.894,2 1.999,2.001l-0.001,1.931c-3.94,-0.496 -6.999,-3.862 -6.997,-7.934zM29.893,30.392c-0.259,-0.804 -1.004,-1.39 -1.894,-1.39h-1l0.001,-3c0,-0.552 -0.448,-1 -1,-1l-5,-0.002l0.001,-2h1c0.552,0 1,-0.448 1,-1l0.001,-2l2,0.001c1.105,0.001 2,-0.894 2.001,-1.999v-0.411c2.927,1.191 4.998,4.063 4.997,7.413c-0.001,2.077 -0.804,3.965 -2.107,5.388z" fill="#ffffff"></path></g></g></svg>